<?xml version="1.0" encoding="UTF-8"?>
<svg version="1.1" xmlns="http://www.w3.org/2000/svg" width="32" height="32">
<path d="M0 0 C1.14984375 -0.00386719 2.2996875 -0.00773438 3.484375 -0.01171875 C4.68578125 -0.00011719 5.8871875 0.01148437 7.125 0.0234375 C8.32640625 0.01183594 9.5278125 0.00023438 10.765625 -0.01171875 C12.49039062 -0.00591797 12.49039062 -0.00591797 14.25 0 C15.83167969 0.00507568 15.83167969 0.00507568 17.4453125 0.01025391 C20.125 0.3984375 20.125 0.3984375 21.96728516 1.55615234 C23.61461838 4.17757294 23.51354594 6.1910385 23.5234375 9.2734375 C23.52923828 10.99820312 23.52923828 10.99820312 23.53515625 12.7578125 C23.52355469 13.95921875 23.51195312 15.160625 23.5 16.3984375 C23.51160156 17.59984375 23.52320313 18.80125 23.53515625 20.0390625 C23.53128906 21.18890625 23.52742188 22.33875 23.5234375 23.5234375 C23.52005371 24.57789062 23.51666992 25.63234375 23.51318359 26.71875 C23.125 29.3984375 23.125 29.3984375 21.96728516 31.24072266 C19.34586456 32.88805588 17.332399 32.78698344 14.25 32.796875 C13.10015625 32.80074219 11.9503125 32.80460937 10.765625 32.80859375 C9.56421875 32.79699219 8.3628125 32.78539062 7.125 32.7734375 C5.92359375 32.78503906 4.7221875 32.79664063 3.484375 32.80859375 C1.75960938 32.80279297 1.75960938 32.80279297 0 32.796875 C-1.05445313 32.79349121 -2.10890625 32.79010742 -3.1953125 32.78662109 C-5.875 32.3984375 -5.875 32.3984375 -7.71728516 31.24072266 C-9.36461838 28.61930206 -9.26354594 26.6058365 -9.2734375 23.5234375 C-9.27730469 22.37359375 -9.28117188 21.22375 -9.28515625 20.0390625 C-9.27355469 18.83765625 -9.26195312 17.63625 -9.25 16.3984375 C-9.26160156 15.19703125 -9.27320313 13.995625 -9.28515625 12.7578125 C-9.28128906 11.60796875 -9.27742187 10.458125 -9.2734375 9.2734375 C-9.27005371 8.21898437 -9.26666992 7.16453125 -9.26318359 6.078125 C-8.875 3.3984375 -8.875 3.3984375 -7.71728516 1.55615234 C-5.09586456 -0.09118088 -3.082399 0.00989156 0 0 Z " fill="#FF0000" transform="translate(8.875,-0.3984375)"/>
<path d="M0 0 C7.59 0 15.18 0 23 0 C23 3.96 23 7.92 23 12 C15.41 12 7.82 12 0 12 C0 8.04 0 4.08 0 0 Z " fill="#EDEDEC" transform="translate(9,10)"/>
<path d="M0 0 C7.59 0 15.18 0 23 0 C23 7 23 7 21.79174805 8.91918945 C19.48821996 10.30871376 18.01477505 10.34423137 15.33203125 10.29296875 C14.43935547 10.28330078 13.54667969 10.27363281 12.62695312 10.26367188 C11.23379883 10.2259668 11.23379883 10.2259668 9.8125 10.1875 C8.87212891 10.17396484 7.93175781 10.16042969 6.96289062 10.14648438 C4.64168265 10.11113603 2.32076912 10.05732915 0 10 C0 6.7 0 3.4 0 0 Z " fill="#2C2727" transform="translate(9,22)"/>
<path d="M0 0 C3.27132607 -0.08081043 6.54066421 -0.14040709 9.8125 -0.1875 C10.74126953 -0.21263672 11.67003906 -0.23777344 12.62695312 -0.26367188 C13.9659668 -0.27817383 13.9659668 -0.27817383 15.33203125 -0.29296875 C16.56530151 -0.31653442 16.56530151 -0.31653442 17.82348633 -0.34057617 C20 -0 20 -0 21.79174805 1.08081055 C23 3 23 3 23 10 C15.41 10 7.82 10 0 10 C0 6.7 0 3.4 0 0 Z " fill="#01722E" transform="translate(9,0)"/>

</svg>
