<svg width="20" height="20" viewBox="0 0 20 20" fill="none" xmlns="http://www.w3.org/2000/svg">
<rect width="20" height="20" fill="white"/>
<path d="M10.8333 1.25C10 1.25 9.16667 3.09988 7.93049 3.09988C7.16683 3.09988 6.55038 3.77153 6.55038 4.53519V11.8038L5.12427 10.3777C4.54462 9.79801 3.60614 9.6876 2.97129 10.2028C2.33644 10.7181 2.22603 11.6934 2.71367 12.3374L5.47389 16.0361C6.09954 16.8734 6.41237 17.2966 6.7896 17.6186C7.36925 18.1155 8.0593 18.4651 8.79536 18.6215C9.283 18.7319 9.80744 18.7319 10.8471 18.7319C12.8437 18.7319 13.8374 18.7319 14.6286 18.4283C15.1531 18.2259 15.5671 17.8671 15.9259 17.453C16.386 16.9102 16.6344 16.2569 16.938 15.5669L17.26 14.5916C17.4624 13.9843 17.5637 13.3403 17.5729 12.7054C17.5821 10.5709 17.5729 8.4455 17.5729 6.31093C17.5729 5.54727 16.9564 4.93082 16.1927 4.93082C15 4.93082 14.5833 3.09988 13.3333 3.09988" fill="#D5F4EC"/>
<path d="M12.0708 4.48002V2.63988C12.0708 1.87621 11.4543 1.25977 10.6907 1.25977C9.927 1.25977 9.31055 1.87621 9.31055 2.63988V4.48002V5.4001M12.0708 4.48002C12.0708 3.71636 12.6872 3.09991 13.4509 3.09991C14.2145 3.09991 14.831 3.71636 14.831 4.48002V6.32017V8.62035M12.0708 4.48002V8.16032" stroke="#03BA8A" stroke-width="1.25" stroke-linecap="round" stroke-linejoin="round"/>
<path d="M9.3106 4.47996C9.3106 3.7163 8.69415 3.09985 7.93049 3.09985C7.16683 3.09985 6.55038 3.77151 6.55038 4.53517V11.8037L5.12427 10.3776C4.54462 9.79799 3.60614 9.68758 2.97129 10.2028C2.33644 10.7181 2.22603 11.6933 2.71367 12.3374L5.47389 16.0361C6.09954 16.8733 6.41237 17.2966 6.7896 17.6186C7.36924 18.1154 8.0593 18.4651 8.79536 18.6215C9.283 18.7319 9.80744 18.7319 10.8471 18.7319C12.8437 18.7319 13.8374 18.7319 14.6286 18.4283C15.1531 18.2259 15.5671 17.867 15.9259 17.453C16.386 16.9102 16.6344 16.2569 16.938 15.5668L17.26 14.5916C17.4624 13.9843 17.5637 13.3403 17.5729 12.7054C17.5821 10.5708 17.5729 8.44548 17.5729 6.31091C17.5729 5.54725 16.9564 4.9308 16.1927 4.9308C15.4291 4.9308 14.8126 5.54725 14.8126 6.31091" stroke="#03BA8A" stroke-width="1.25" stroke-linecap="round" stroke-linejoin="round"/>
</svg>
