<svg width="18" height="20" viewBox="0 0 18 20" fill="none" xmlns="http://www.w3.org/2000/svg">
<path d="M11.0708 4.48002V2.63988C11.0708 1.87621 10.4543 1.25977 9.69066 1.25977C8.927 1.25977 8.31055 1.87621 8.31055 2.63988V4.48002V5.4001M11.0708 4.48002C11.0708 3.71636 11.6872 3.09991 12.4509 3.09991C13.2145 3.09991 13.831 3.71636 13.831 4.48002V6.32017V8.62035M11.0708 4.48002V8.16032" stroke="#130061" stroke-width="1.25" stroke-linecap="round" stroke-linejoin="round"/>
<path d="M8.3106 4.47996C8.3106 3.7163 7.69415 3.09985 6.93049 3.09985C6.16683 3.09985 5.55038 3.77151 5.55038 4.53517V11.8037L4.12427 10.3776C3.54462 9.79799 2.60614 9.68758 1.97129 10.2028C1.33644 10.7181 1.22603 11.6933 1.71367 12.3374L4.47389 16.0361C5.09954 16.8733 5.41237 17.2966 5.7896 17.6186C6.36924 18.1154 7.0593 18.4651 7.79536 18.6215C8.283 18.7319 8.80744 18.7319 9.84712 18.7319C11.8437 18.7319 12.8374 18.7319 13.6286 18.4283C14.1531 18.2259 14.5671 17.867 14.9259 17.453C15.386 16.9102 15.6344 16.2569 15.938 15.5668L16.26 14.5916C16.4624 13.9843 16.5637 13.3403 16.5729 12.7054C16.5821 10.5708 16.5729 8.44548 16.5729 6.31091C16.5729 5.54725 15.9564 4.9308 15.1927 4.9308C14.4291 4.9308 13.8126 5.54725 13.8126 6.31091" stroke="#130061" stroke-width="1.25" stroke-linecap="round" stroke-linejoin="round"/>
</svg>
