<svg width="58" height="58" viewBox="0 0 58 58" fill="none" xmlns="http://www.w3.org/2000/svg">
<g filter="url(#filter0_d_53_4)">
<path d="M39.4418 9.12073H20.1744V17.1108H43.5569V13.2341C43.5569 10.9658 41.7108 9.12073 39.4418 9.12073Z" fill="#BEBDB6"/>
<path d="M28.5352 18.3403H6V10.9264C6 8.20972 8.21068 6 10.9283 6H18.1336C18.8497 6 19.5396 6.15092 20.1664 6.43451C21.0418 6.82896 21.7939 7.47913 22.3213 8.3286L28.5352 18.3403Z" fill="#1F1F1D"/>
<path d="M48 20.0001V43.8815C48 46.1527 46.1511 48 43.8789 48H10.1211C7.84891 48 6 46.1527 6 43.8815V15.8806H43.8789C46.1511 15.8806 48 17.7286 48 20.0001Z" fill="#3C3C3A"/>
<path d="M48 20.0001V43.8815C48 46.1527 46.1511 48 43.8789 48H27V15.8806H43.8789C46.1511 15.8806 48 17.7286 48 20.0001Z" fill="#2E2E2C"/>
<path d="M38.0479 31.9398C38.0479 38.0322 33.0918 42.9887 27 42.9887C20.9082 42.9887 15.952 38.0322 15.952 31.9398C15.952 25.8483 20.9082 20.8918 27 20.8918C33.0918 20.8918 38.0479 25.8483 38.0479 31.9398Z" fill="#D9D9D4"/>
<path d="M38.0479 31.9398C38.0479 38.0322 33.0918 42.9887 27 42.9887V20.8918C33.0918 20.8918 38.0479 25.8483 38.0479 31.9398Z" fill="#BEBDB6"/>
<path d="M30.561 32.0753C30.3306 32.2704 30.0483 32.3656 29.7685 32.3656C29.4183 32.3656 29.0703 32.2173 28.8268 31.9282L28.2304 31.2213V35.8494C28.2304 36.5287 27.6793 37.0799 27 37.0799C26.3207 37.0799 25.7695 36.5287 25.7695 35.8494V31.2213L25.1732 31.9282C24.7342 32.4476 23.9584 32.514 23.439 32.0753C22.9199 31.6373 22.8532 30.8612 23.2913 30.3418L25.7269 27.4543C26.0444 27.0788 26.5078 26.8628 27 26.8628C27.4922 26.8628 27.9555 27.0788 28.2731 27.4543L30.7087 30.3418C31.1467 30.8612 31.0801 31.6373 30.561 32.0753Z" fill="#60605B"/>
<path d="M30.561 32.0753C30.3306 32.2704 30.0483 32.3656 29.7686 32.3656C29.4183 32.3656 29.0703 32.2173 28.8268 31.9282L28.2305 31.2213V35.8494C28.2305 36.5287 27.6793 37.0799 27 37.0799V26.8628C27.4922 26.8628 27.9555 27.0788 28.2731 27.4543L30.7087 30.3418C31.1467 30.8612 31.0801 31.6373 30.561 32.0753Z" fill="#444442"/>
</g>
<defs>
<filter id="filter0_d_53_4" x="0" y="0" width="58" height="58" filterUnits="userSpaceOnUse" color-interpolation-filters="sRGB">
<feFlood flood-opacity="0" result="BackgroundImageFix"/>
<feColorMatrix in="SourceAlpha" type="matrix" values="0 0 0 0 0 0 0 0 0 0 0 0 0 0 0 0 0 0 127 0" result="hardAlpha"/>
<feOffset dx="2" dy="2"/>
<feGaussianBlur stdDeviation="4"/>
<feComposite in2="hardAlpha" operator="out"/>
<feColorMatrix type="matrix" values="0 0 0 0 0 0 0 0 0 0 0 0 0 0 0 0 0 0 0.25 0"/>
<feBlend mode="normal" in2="BackgroundImageFix" result="effect1_dropShadow_53_4"/>
<feBlend mode="normal" in="SourceGraphic" in2="effect1_dropShadow_53_4" result="shape"/>
</filter>
</defs>
</svg>